<svg width="46" height="32" viewBox="0 0 46 32" fill="none" xmlns="http://www.w3.org/2000/svg">
<g clip-path="url(#clip0_359_4732)">
<path d="M24.271 31.9953C24.1625 31.9953 24.0523 31.9953 23.9435 31.9925C19.5414 31.9171 15.47 30.347 12.7741 27.687C12.3592 27.2774 11.9693 26.8431 11.6066 26.3866C10.2101 26.3033 8.89158 25.7149 7.897 24.7311C7.3563 24.2022 6.92707 23.5703 6.63465 22.8728C6.34224 22.1753 6.19256 21.4262 6.19448 20.6699C6.19459 20.1757 6.259 19.6836 6.38608 19.206C4.95777 19.1477 3.62403 18.5839 2.60381 17.603C1.5184 16.5579 0.920699 15.1672 0.920699 13.6863C0.920699 13.5079 0.929655 13.3293 0.947323 13.1516C0.32806 12.2558 -0.00248587 11.1921 1.44044e-05 10.1031C-0.00251463 9.01424 0.328037 7.9506 0.947323 7.05493C0.929655 6.87727 0.920699 6.69836 0.920699 6.51994C0.920699 5.03938 1.5179 3.6484 2.60381 2.6033C3.68076 1.56641 5.1113 0.995338 6.63193 0.995338C6.80611 0.995338 6.98353 1.00329 7.15896 1.01897C8.13282 0.354124 9.2848 -0.00103797 10.464 3.49113e-06C11.6442 -0.0012388 12.7972 0.354394 13.7717 1.02022C13.9544 1.0033 14.1377 0.995338 14.3209 0.995338C15.3995 0.99062 16.4581 1.28717 17.3773 1.85158C17.7317 1.75878 18.0966 1.71202 18.463 1.71247C18.7432 1.71232 19.0229 1.73967 19.2978 1.7941C19.9808 1.35742 20.7747 1.12588 21.5853 1.12697C22.1175 1.12683 22.6449 1.22616 23.1405 1.41985C23.6362 1.22616 24.1636 1.12683 24.6957 1.12697C25.4117 1.12398 26.1166 1.30384 26.7437 1.64952C27.0908 1.56056 27.4478 1.51574 27.8062 1.51614C28.1349 1.51609 28.4626 1.55409 28.7826 1.62937C29.6064 1.21121 30.5175 0.993945 31.4414 0.995338C31.6156 0.995338 31.793 1.00329 31.9684 1.01897C32.9423 0.354124 34.0943 -0.00103797 35.2734 3.49113e-06C36.4537 -0.00128542 37.6067 0.354351 38.5812 1.02022C38.7638 1.0033 38.9472 0.995338 39.1303 0.995338C40.651 0.995338 42.0815 1.56641 43.1585 2.6033C44.2439 3.6484 44.8416 5.03938 44.8416 6.51994C44.8416 6.70929 44.8315 6.8985 44.8115 7.08678C45.4169 7.97602 45.7396 9.02738 45.7374 10.1031C45.7396 11.179 45.4169 12.2304 44.8115 13.1198C44.8316 13.3079 44.8416 13.4971 44.8416 13.6863C44.8416 15.1672 44.2444 16.5581 43.1585 17.603C42.0815 18.6399 40.651 19.211 39.1303 19.211C38.9584 19.211 38.7857 19.2035 38.6138 19.1886C38.3939 19.3425 38.1634 19.4806 37.924 19.6019C38.0723 20.2099 38.1464 20.8336 38.1445 21.4594C38.1445 24.0075 37.1648 26.2699 35.3112 28.0017C33.8981 29.3223 32.17 30.3408 30.1748 31.0303C28.3461 31.6616 26.3047 31.9953 24.271 31.9953Z" fill="white"/>
<path fill-rule="evenodd" clip-rule="evenodd" d="M35.3111 28.0017C33.898 29.3223 32.1698 30.3408 30.1747 31.0303C28.346 31.6616 26.3046 31.9952 24.2708 31.9952H24.2705C24.1621 31.9952 24.052 31.9952 23.9434 31.9925C19.5413 31.9171 15.4698 30.347 12.774 27.6869C12.359 27.2773 11.9691 26.8431 11.6065 26.3865C10.21 26.3033 8.89143 25.7149 7.89684 24.731C7.35615 24.2022 6.92692 23.5703 6.6345 22.8728C6.34208 22.1752 6.19241 21.4262 6.19432 20.6698C6.19443 20.2433 6.2424 19.8184 6.33722 19.4031C6.35228 19.3371 6.36851 19.2714 6.38593 19.2059C6.31813 19.2032 6.25054 19.1993 6.18319 19.1942C4.83171 19.0932 3.57545 18.5373 2.60366 17.603C1.51824 16.5579 0.920547 15.1671 0.920547 13.6863C0.920547 13.5079 0.929504 13.3292 0.947171 13.1516C0.327909 12.2558 -0.00263774 11.1921 -0.000137463 10.1031C-0.0026665 9.01421 0.327885 7.95057 0.947171 7.0549C0.929504 6.87724 0.920547 6.69833 0.920547 6.51991C0.920547 5.03935 1.51775 3.64837 2.60366 2.60327C3.68061 1.56638 5.11115 0.995308 6.63177 0.995308C6.80596 0.995308 6.98338 1.00326 7.1588 1.01894C8.13267 0.354094 9.28465 -0.00106779 10.4638 -2.63304e-05C11.644 -0.00126863 12.7971 0.354364 13.7716 1.02019C13.9542 1.00327 14.1376 0.995308 14.3207 0.995308C15.3994 0.990591 16.4579 1.28714 17.3772 1.85155C17.7316 1.75875 18.0965 1.71199 18.4628 1.71244C18.7431 1.71229 19.0227 1.73964 19.2977 1.79407C19.9806 1.35739 20.7745 1.12585 21.5852 1.12694C22.1173 1.1268 22.6448 1.22613 23.1404 1.41982C23.636 1.22613 24.1635 1.1268 24.6956 1.12694C25.4116 1.12395 26.1165 1.30381 26.7435 1.64949C27.0907 1.56053 27.4476 1.51571 27.806 1.51611C28.1348 1.51606 28.4624 1.55406 28.7824 1.62934C29.6063 1.21118 30.5174 0.993915 31.4412 0.995308C31.6154 0.995308 31.7928 1.00326 31.9683 1.01894C32.9421 0.354094 34.0941 -0.00106779 35.2733 -2.63304e-05C36.4535 -0.00131524 37.6065 0.354321 38.581 1.02019C38.7637 1.00327 38.947 0.995308 39.1302 0.995308C40.6508 0.995308 42.0814 1.56638 43.1583 2.60327C44.2437 3.64837 44.8414 5.03935 44.8414 6.51991C44.8414 6.70926 44.8314 6.89847 44.8113 7.08675C45.4167 7.97599 45.7394 9.02735 45.7372 10.1031C45.7395 11.179 45.4168 12.2304 44.8113 13.1197C44.8314 13.3079 44.8414 13.4971 44.8414 13.6863C44.8414 15.1671 44.2442 16.5581 43.1583 17.603C42.0814 18.6398 40.6508 19.2109 39.1302 19.2109C38.9582 19.2109 38.7856 19.2035 38.6136 19.1885C38.3937 19.3424 38.1632 19.4805 37.9238 19.6018C38.0722 20.2098 38.1462 20.8336 38.1443 21.4594C38.1443 24.0074 37.1647 26.2698 35.3111 28.0017ZM38.3434 21.46C38.3432 24.0626 37.3409 26.3776 35.447 28.1472C34.0117 29.4885 32.2587 30.5206 30.2397 31.2184L30.2396 31.2184C28.389 31.8573 26.3255 32.1943 24.2708 32.1943H24.2691C24.1618 32.1943 24.0499 32.1943 23.9391 32.1915C19.4951 32.1152 15.3721 30.5302 12.6342 27.8286L12.6341 27.8286C12.2344 27.4341 11.8576 27.0169 11.5057 26.5793C10.0942 26.474 8.76501 25.8696 7.75725 24.873C7.19773 24.3256 6.75354 23.6716 6.45091 22.9497C6.14825 22.2278 5.99332 21.4525 5.99526 20.6696M38.3434 21.46C38.3452 20.8701 38.2812 20.2821 38.1528 19.7067C38.3299 19.6109 38.502 19.5061 38.6683 19.3927C38.8222 19.4042 38.9765 19.41 39.1302 19.41C40.7013 19.41 42.1816 18.8197 43.2963 17.7464C44.4205 16.6647 45.0405 15.2222 45.0405 13.6864C45.0405 13.5143 45.0325 13.3424 45.0165 13.1712C45.6182 12.2618 45.9385 11.1946 45.9363 10.1031C45.9385 9.01172 45.6182 7.94456 45.0165 7.03529C45.0325 6.86396 45.0405 6.69198 45.0405 6.51991C45.0405 4.98419 44.42 3.54175 43.2964 2.45987C42.1816 1.38659 40.7013 0.796241 39.1302 0.796241C38.965 0.796241 38.7994 0.802518 38.634 0.815804C37.6391 0.153102 36.4697 -0.200363 35.2733 -0.199093C34.0778 -0.200111 32.9094 0.152946 31.9151 0.81474C31.7571 0.802467 31.5981 0.796246 31.4414 0.796241M28.757 1.41947C28.4447 1.35136 28.1259 1.317 27.8061 1.31704C27.4573 1.31666 27.1097 1.35722 26.7704 1.43781C26.1314 1.10024 25.4187 0.924921 24.6952 0.927875C24.1643 0.927785 23.6378 1.02231 23.1404 1.20681C22.6429 1.02228 22.1163 0.92775 21.5853 0.927875C20.7632 0.926799 19.9575 1.15423 19.258 1.584C18.9956 1.53689 18.7295 1.51324 18.4628 1.51338C18.1078 1.51296 17.754 1.55491 17.4091 1.63825C16.4754 1.0829 15.4077 0.791563 14.3203 0.796241C14.1553 0.796252 13.9898 0.80253 13.8245 0.815805C12.8296 0.153146 11.6602 -0.200314 10.4638 -0.199093C9.26833 -0.200111 8.0999 0.152946 7.10559 0.81474C6.94756 0.802463 6.78847 0.796241 6.63177 0.796241C5.06065 0.796241 3.58033 1.38659 2.46559 2.45986C1.34144 3.54178 0.72148 4.98424 0.72148 6.51991C0.72148 6.68066 0.728489 6.84174 0.742333 7.00198C0.126524 7.91818 -0.20168 8.99809 -0.199205 10.1031C-0.20165 11.2082 0.126548 12.2882 0.742333 13.2045C0.72849 13.3647 0.72148 13.5256 0.72148 13.6863C0.72148 15.2223 1.34197 16.6645 2.46558 17.7464L2.46569 17.7465C3.46365 18.706 4.75137 19.2795 6.13605 19.3903" fill="white"/>
<path d="M40.2117 5.62369C40.2117 8.24855 38.0003 10.3764 35.2724 10.3764C32.5444 10.3764 30.333 8.24855 30.333 5.62369C30.333 2.99884 32.5444 0.870972 35.2724 0.870972C38.0003 0.870972 40.2117 2.99884 40.2117 5.62369Z" fill="black"/>
<path fill-rule="evenodd" clip-rule="evenodd" d="M35.2724 9.92948C37.7698 9.92948 39.7648 7.98564 39.7648 5.62369C39.7648 3.26174 37.7698 1.31791 35.2724 1.31791C32.7749 1.31791 30.7799 3.26174 30.7799 5.62369C30.7799 7.98564 32.7749 9.92948 35.2724 9.92948ZM35.2724 10.3764C38.0003 10.3764 40.2117 8.24855 40.2117 5.62369C40.2117 2.99884 38.0003 0.870972 35.2724 0.870972C32.5444 0.870972 30.333 2.99884 30.333 5.62369C30.333 8.24855 32.5444 10.3764 35.2724 10.3764Z" fill="black"/>
<path d="M40.2117 14.8057C40.2117 17.4306 38.0003 19.5584 35.2724 19.5584C32.5444 19.5584 30.333 17.4306 30.333 14.8057C30.333 12.1808 32.5444 10.053 35.2724 10.053C38.0003 10.053 40.2117 12.1808 40.2117 14.8057Z" fill="black"/>
<path fill-rule="evenodd" clip-rule="evenodd" d="M35.2724 19.1115C37.7698 19.1115 39.7648 17.1676 39.7648 14.8057C39.7648 12.4438 37.7698 10.4999 35.2724 10.4999C32.7749 10.4999 30.7799 12.4438 30.7799 14.8057C30.7799 17.1676 32.7749 19.1115 35.2724 19.1115ZM35.2724 19.5584C38.0003 19.5584 40.2117 17.4306 40.2117 14.8057C40.2117 12.1808 38.0003 10.053 35.2724 10.053C32.5444 10.053 30.333 12.1808 30.333 14.8057C30.333 17.4306 32.5444 19.5584 35.2724 19.5584Z" fill="black"/>
<path d="M36.3797 6.61905C36.3797 9.24391 34.1682 11.3718 31.4403 11.3718C28.7124 11.3718 26.501 9.24391 26.501 6.61905C26.501 3.9942 28.7124 1.86633 31.4403 1.86633C34.1682 1.86633 36.3797 3.9942 36.3797 6.61905Z" fill="black"/>
<path fill-rule="evenodd" clip-rule="evenodd" d="M31.4403 10.9248C33.9378 10.9248 35.9327 8.981 35.9327 6.61905C35.9327 4.25711 33.9378 2.31327 31.4403 2.31327C28.9429 2.31327 26.9479 4.25711 26.9479 6.61905C26.9479 8.981 28.9429 10.9248 31.4403 10.9248ZM31.4403 11.3718C34.1682 11.3718 36.3797 9.24391 36.3797 6.61905C36.3797 3.9942 34.1682 1.86633 31.4403 1.86633C28.7124 1.86633 26.501 3.9942 26.501 6.61905C26.501 9.24391 28.7124 11.3718 31.4403 11.3718Z" fill="black"/>
<path d="M36.3797 13.7854C36.3797 16.4103 34.1682 18.5382 31.4403 18.5382C28.7124 18.5382 26.501 16.4103 26.501 13.7854C26.501 11.1606 28.7124 9.03271 31.4403 9.03271C34.1682 9.03271 36.3797 11.1606 36.3797 13.7854Z" fill="black"/>
<path fill-rule="evenodd" clip-rule="evenodd" d="M31.4403 18.0912C33.9378 18.0912 35.9327 16.1474 35.9327 13.7854C35.9327 11.4235 33.9378 9.47965 31.4403 9.47965C28.9429 9.47965 26.9479 11.4235 26.9479 13.7854C26.9479 16.1474 28.9429 18.0912 31.4403 18.0912ZM31.4403 18.5382C34.1682 18.5382 36.3797 16.4103 36.3797 13.7854C36.3797 11.1606 34.1682 9.03271 31.4403 9.03271C28.7124 9.03271 26.501 11.1606 26.501 13.7854C26.501 16.4103 28.7124 18.5382 31.4403 18.5382Z" fill="black"/>
<path d="M44.0686 6.61905C44.0686 9.24391 41.8572 11.3718 39.1293 11.3718C36.4014 11.3718 34.1899 9.24391 34.1899 6.61905C34.1899 3.9942 36.4014 1.86633 39.1293 1.86633C41.8572 1.86633 44.0686 3.9942 44.0686 6.61905Z" fill="black"/>
<path fill-rule="evenodd" clip-rule="evenodd" d="M39.1293 10.9248C41.6268 10.9248 43.6217 8.981 43.6217 6.61905C43.6217 4.25711 41.6268 2.31327 39.1293 2.31327C36.6318 2.31327 34.6369 4.25711 34.6369 6.61905C34.6369 8.981 36.6318 10.9248 39.1293 10.9248ZM39.1293 11.3718C41.8572 11.3718 44.0686 9.24391 44.0686 6.61905C44.0686 3.9942 41.8572 1.86633 39.1293 1.86633C36.4014 1.86633 34.1899 3.9942 34.1899 6.61905C34.1899 9.24391 36.4014 11.3718 39.1293 11.3718Z" fill="black"/>
<path d="M44.0686 13.7854C44.0686 16.4103 41.8572 18.5382 39.1293 18.5382C36.4014 18.5382 34.1899 16.4103 34.1899 13.7854C34.1899 11.1606 36.4014 9.03271 39.1293 9.03271C41.8572 9.03271 44.0686 11.1606 44.0686 13.7854Z" fill="black"/>
<path fill-rule="evenodd" clip-rule="evenodd" d="M39.1293 18.0912C41.6268 18.0912 43.6217 16.1474 43.6217 13.7854C43.6217 11.4235 41.6268 9.47965 39.1293 9.47965C36.6318 9.47965 34.6369 11.4235 34.6369 13.7854C34.6369 16.1474 36.6318 18.0912 39.1293 18.0912ZM39.1293 18.5382C41.8572 18.5382 44.0686 16.4103 44.0686 13.7854C44.0686 11.1606 41.8572 9.03271 39.1293 9.03271C36.4014 9.03271 34.1899 11.1606 34.1899 13.7854C34.1899 16.4103 36.4014 18.5382 39.1293 18.5382Z" fill="black"/>
<path d="M44.9641 10.2022C44.9641 12.827 42.7527 14.9549 40.0248 14.9549C37.2969 14.9549 35.0854 12.827 35.0854 10.2022C35.0854 7.57733 37.2969 5.44946 40.0248 5.44946C42.7527 5.44946 44.9641 7.57733 44.9641 10.2022Z" fill="black"/>
<path fill-rule="evenodd" clip-rule="evenodd" d="M40.0248 14.508C42.5223 14.508 44.5172 12.5641 44.5172 10.2022C44.5172 7.84023 42.5223 5.8964 40.0248 5.8964C37.5273 5.8964 35.5324 7.84023 35.5324 10.2022C35.5324 12.5641 37.5273 14.508 40.0248 14.508ZM40.0248 14.9549C42.7527 14.9549 44.9641 12.827 44.9641 10.2022C44.9641 7.57733 42.7527 5.44946 40.0248 5.44946C37.2969 5.44946 35.0854 7.57733 35.0854 10.2022C35.0854 12.827 37.2969 14.9549 40.0248 14.9549Z" fill="black"/>
<path d="M35.4588 10.2022C35.4588 12.827 33.2474 14.9549 30.5194 14.9549C27.7915 14.9549 25.5801 12.827 25.5801 10.2022C25.5801 7.57733 27.7915 5.44946 30.5194 5.44946C33.2474 5.44946 35.4588 7.57733 35.4588 10.2022Z" fill="black"/>
<path fill-rule="evenodd" clip-rule="evenodd" d="M30.5194 14.508C33.0169 14.508 35.0118 12.5641 35.0118 10.2022C35.0118 7.84023 33.0169 5.8964 30.5194 5.8964C28.022 5.8964 26.027 7.84023 26.027 10.2022C26.027 12.5641 28.022 14.508 30.5194 14.508ZM30.5194 14.9549C33.2474 14.9549 35.4588 12.827 35.4588 10.2022C35.4588 7.57733 33.2474 5.44946 30.5194 5.44946C27.7915 5.44946 25.5801 7.57733 25.5801 10.2022C25.5801 12.827 27.7915 14.9549 30.5194 14.9549Z" fill="black"/>
<path fill-rule="evenodd" clip-rule="evenodd" d="M22.6542 5.03455C29.4824 5.03455 34.8345 11.0019 34.6764 17.6786C34.6701 17.9434 34.7626 18.2008 34.9236 18.4111C35.5869 19.2777 35.9537 20.3199 35.9537 21.5583C35.9537 23.5129 35.2196 25.1884 33.8152 26.5008C28.7909 31.196 19.1149 30.9668 14.3113 26.2267C13.8593 25.7806 13.4412 25.2987 13.0616 24.7853C12.8211 24.4601 12.4186 24.301 12.0141 24.3058C11.9992 24.306 11.9842 24.3061 11.9693 24.3061C9.98879 24.3061 8.3833 22.7225 8.3833 20.7689C8.3833 19.3299 9.25446 18.0916 10.505 17.5391C10.5787 17.5066 10.6276 17.4343 10.6276 17.3537C10.6276 10.55 16.0121 5.03455 22.6542 5.03455Z" fill="white"/>
<path fill-rule="evenodd" clip-rule="evenodd" d="M36.0712 17.6185C36.9 18.7247 37.3471 20.0479 37.3471 21.5582C37.3471 23.8985 36.4531 25.9428 34.7665 27.5188C31.9287 30.1707 27.8714 31.3627 23.9564 31.2951C20.0428 31.2276 16.0478 29.8979 13.3325 27.2185L14.3112 26.2266C19.1148 30.9667 28.7908 31.1959 33.8151 26.5007C35.2195 25.1884 35.9536 23.5128 35.9536 21.5582C35.9536 20.3198 35.5868 19.2776 34.9235 18.4111C34.7625 18.2007 34.67 17.9433 34.6763 17.6785C34.8344 11.0018 29.4823 5.03446 22.6541 5.03446C16.012 5.03446 10.6275 10.5499 10.6275 17.3536C10.6275 17.4342 10.5786 17.5065 10.5049 17.5391C9.25438 18.0915 8.38321 19.3298 8.38321 20.7689C8.38321 22.7224 9.9887 24.306 11.9692 24.306C11.9841 24.306 11.9991 24.3059 12.014 24.3058C12.4185 24.3009 12.821 24.46 13.0615 24.7852C13.4412 25.2986 13.8592 25.7806 14.3112 26.2266L13.3325 27.2185C12.8542 26.7465 12.4103 26.2387 12.0049 25.6994C11.993 25.6995 11.9811 25.6995 11.9692 25.6995C9.23717 25.6995 6.98975 23.5099 6.98975 20.7689C6.98975 19.0305 7.8964 17.5126 9.25209 16.6367C9.61659 9.4249 15.4483 3.64099 22.6541 3.64099C30.2919 3.64099 36.195 10.2572 36.0712 17.6185Z" fill="black"/>
<path d="M21.9073 5.82442C21.9073 3.99293 20.365 2.50821 18.4624 2.50821C16.5599 2.50821 15.0176 3.99293 15.0176 5.82442C15.0176 7.65591 16.5599 9.14062 18.4624 9.14062C20.365 9.14062 21.9073 7.65591 21.9073 5.82442Z" fill="black"/>
<path fill-rule="evenodd" clip-rule="evenodd" d="M18.4624 3.10542C20.0568 3.10542 21.3101 4.34397 21.3101 5.82442C21.3101 7.30487 20.0568 8.54342 18.4624 8.54342C16.8681 8.54342 15.6148 7.30487 15.6148 5.82442C15.6148 4.34397 16.8681 3.10542 18.4624 3.10542ZM18.4624 2.50821C20.365 2.50821 21.9073 3.99293 21.9073 5.82442C21.9073 7.65591 20.365 9.14062 18.4624 9.14062C16.5599 9.14062 15.0176 7.65591 15.0176 5.82442C15.0176 3.99293 16.5599 2.50821 18.4624 2.50821Z" fill="black"/>
<path d="M22.6542 9.86086C22.6542 7.91324 21.0141 6.33439 18.9909 6.33439C16.9677 6.33439 15.3276 7.91324 15.3276 9.86086C15.3276 11.8085 16.9677 13.3873 18.9909 13.3873C21.0141 13.3873 22.6542 11.8085 22.6542 9.86086Z" fill="black"/>
<path fill-rule="evenodd" clip-rule="evenodd" d="M18.9909 6.93159C20.7059 6.93159 22.057 8.26429 22.057 9.86086C22.057 11.4574 20.7059 12.7901 18.9909 12.7901C17.2759 12.7901 15.9248 11.4574 15.9248 9.86086C15.9248 8.26429 17.2759 6.93159 18.9909 6.93159ZM18.9909 6.33439C21.0141 6.33439 22.6542 7.91324 22.6542 9.86086C22.6542 11.8085 21.0141 13.3873 18.9909 13.3873C16.9677 13.3873 15.3276 11.8085 15.3276 9.86086C15.3276 7.91324 16.9677 6.33439 18.9909 6.33439Z" fill="black"/>
<path d="M26.412 9.46267C26.412 7.51505 24.7719 5.9362 22.7487 5.9362C20.7256 5.9362 19.0854 7.51505 19.0854 9.46267C19.0854 11.4103 20.7256 12.9891 22.7487 12.9891C24.7719 12.9891 26.412 11.4103 26.412 9.46267Z" fill="black"/>
<path fill-rule="evenodd" clip-rule="evenodd" d="M22.7487 6.5334C24.4637 6.5334 25.8148 7.86609 25.8148 9.46267C25.8148 11.0592 24.4637 12.3919 22.7487 12.3919C21.0338 12.3919 19.6826 11.0592 19.6826 9.46267C19.6826 7.86609 21.0338 6.5334 22.7487 6.5334ZM22.7487 5.9362C24.7719 5.9362 26.412 7.51505 26.412 9.46267C26.412 11.4103 24.7719 12.9891 22.7487 12.9891C20.7256 12.9891 19.0854 11.4103 19.0854 9.46267C19.0854 7.51505 20.7256 5.9362 22.7487 5.9362Z" fill="black"/>
<path d="M30.1693 9.26369C30.1693 7.31608 28.5292 5.73722 26.506 5.73722C24.4829 5.73722 22.8428 7.31608 22.8428 9.26369C22.8428 11.2113 24.4829 12.7902 26.506 12.7902C28.5292 12.7902 30.1693 11.2113 30.1693 9.26369Z" fill="black"/>
<path fill-rule="evenodd" clip-rule="evenodd" d="M26.506 6.33442C28.221 6.33442 29.5721 7.66712 29.5721 9.26369C29.5721 10.8603 28.221 12.193 26.506 12.193C24.7911 12.193 23.44 10.8603 23.44 9.26369C23.44 7.66712 24.7911 6.33442 26.506 6.33442ZM26.506 5.73722C28.5292 5.73722 30.1693 7.31608 30.1693 9.26369C30.1693 11.2113 28.5292 12.7902 26.506 12.7902C24.4829 12.7902 22.8428 11.2113 22.8428 9.26369C22.8428 7.31608 24.4829 5.73722 26.506 5.73722Z" fill="black"/>
<path d="M33.9266 9.46267C33.9266 7.51505 32.2865 5.9362 30.2634 5.9362C28.2402 5.9362 26.6001 7.51505 26.6001 9.46267C26.6001 11.4103 28.2402 12.9891 30.2634 12.9891C32.2865 12.9891 33.9266 11.4103 33.9266 9.46267Z" fill="black"/>
<path fill-rule="evenodd" clip-rule="evenodd" d="M30.2634 6.5334C31.9783 6.5334 33.3294 7.86609 33.3294 9.46267C33.3294 11.0592 31.9783 12.3919 30.2634 12.3919C28.5484 12.3919 27.1973 11.0592 27.1973 9.46267C27.1973 7.86609 28.5484 6.5334 30.2634 6.5334ZM30.2634 5.9362C32.2865 5.9362 33.9266 7.51505 33.9266 9.46267C33.9266 11.4103 32.2865 12.9891 30.2634 12.9891C28.2402 12.9891 26.6001 11.4103 26.6001 9.46267C26.6001 7.51505 28.2402 5.9362 30.2634 5.9362Z" fill="black"/>
<path d="M37.684 9.86086C37.684 7.91324 36.0439 6.33439 34.0207 6.33439C31.9975 6.33439 30.3574 7.91324 30.3574 9.86086C30.3574 11.8085 31.9975 13.3873 34.0207 13.3873C36.0439 13.3873 37.684 11.8085 37.684 9.86086Z" fill="black"/>
<path fill-rule="evenodd" clip-rule="evenodd" d="M34.0207 6.93159C35.7357 6.93159 37.0868 8.26429 37.0868 9.86086C37.0868 11.4574 35.7357 12.7901 34.0207 12.7901C32.3057 12.7901 30.9546 11.4574 30.9546 9.86086C30.9546 8.26429 32.3057 6.93159 34.0207 6.93159ZM34.0207 6.33439C36.0439 6.33439 37.684 7.91324 37.684 9.86086C37.684 11.8085 36.0439 13.3873 34.0207 13.3873C31.9975 13.3873 30.3574 11.8085 30.3574 9.86086C30.3574 7.91324 31.9975 6.33439 34.0207 6.33439Z" fill="black"/>
<path d="M25.0298 5.23885C25.0298 3.40736 23.4875 1.92264 21.585 1.92264C19.6824 1.92264 18.1401 3.40736 18.1401 5.23885C18.1401 7.07034 19.6824 8.55505 21.585 8.55505C23.4875 8.55505 25.0298 7.07034 25.0298 5.23885Z" fill="black"/>
<path fill-rule="evenodd" clip-rule="evenodd" d="M21.585 2.51984C23.1793 2.51984 24.4326 3.7584 24.4326 5.23885C24.4326 6.71929 23.1793 7.95785 21.585 7.95785C19.9906 7.95785 18.7373 6.71929 18.7373 5.23885C18.7373 3.7584 19.9906 2.51984 21.585 2.51984ZM21.585 1.92264C23.4875 1.92264 25.0298 3.40736 25.0298 5.23885C25.0298 7.07034 23.4875 8.55505 21.585 8.55505C19.6824 8.55505 18.1401 7.07034 18.1401 5.23885C18.1401 3.40736 19.6824 1.92264 21.585 1.92264Z" fill="black"/>
<path d="M28.1402 5.23885C28.1402 3.40736 26.5979 1.92264 24.6953 1.92264C22.7928 1.92264 21.2505 3.40736 21.2505 5.23885C21.2505 7.07034 22.7928 8.55505 24.6953 8.55505C26.5979 8.55505 28.1402 7.07034 28.1402 5.23885Z" fill="black"/>
<path fill-rule="evenodd" clip-rule="evenodd" d="M24.6953 2.51984C26.2897 2.51984 27.543 3.7584 27.543 5.23885C27.543 6.71929 26.2897 7.95785 24.6953 7.95785C23.101 7.95785 21.8477 6.71929 21.8477 5.23885C21.8477 3.7584 23.101 2.51984 24.6953 2.51984ZM24.6953 1.92264C26.5979 1.92264 28.1402 3.40736 28.1402 5.23885C28.1402 7.07034 26.5979 8.55505 24.6953 8.55505C22.7928 8.55505 21.2505 7.07034 21.2505 5.23885C21.2505 3.40736 22.7928 1.92264 24.6953 1.92264Z" fill="black"/>
<path d="M31.2505 5.62911C31.2505 3.79762 29.7082 2.3129 27.8057 2.3129C25.9032 2.3129 24.3608 3.79762 24.3608 5.62911C24.3608 7.4606 25.9032 8.94531 27.8057 8.94531C29.7082 8.94531 31.2505 7.4606 31.2505 5.62911Z" fill="black"/>
<path fill-rule="evenodd" clip-rule="evenodd" d="M27.8057 2.9101C29.4 2.9101 30.6533 4.14866 30.6533 5.62911C30.6533 7.10955 29.4 8.34811 27.8057 8.34811C26.2114 8.34811 24.958 7.10955 24.958 5.62911C24.958 4.14866 26.2114 2.9101 27.8057 2.9101ZM27.8057 2.3129C29.7082 2.3129 31.2505 3.79762 31.2505 5.62911C31.2505 7.4606 29.7082 8.94531 27.8057 8.94531C25.9032 8.94531 24.3608 7.4606 24.3608 5.62911C24.3608 3.79762 25.9032 2.3129 27.8057 2.3129Z" fill="black"/>
<path d="M23.9306 20.0735C23.9306 20.8212 23.3736 21.4274 22.6865 21.4274C21.9994 21.4274 21.4424 20.8212 21.4424 20.0735C21.4424 19.3258 21.9994 18.7196 22.6865 18.7196C23.3736 18.7196 23.9306 19.3258 23.9306 20.0735Z" fill="black"/>
<path fill-rule="evenodd" clip-rule="evenodd" d="M22.6865 20.8302C22.9972 20.8302 23.3334 20.5399 23.3334 20.0735C23.3334 19.607 22.9972 19.3168 22.6865 19.3168C22.3757 19.3168 22.0396 19.607 22.0396 20.0735C22.0396 20.5399 22.3757 20.8302 22.6865 20.8302ZM22.6865 21.4274C23.3736 21.4274 23.9306 20.8212 23.9306 20.0735C23.9306 19.3258 23.3736 18.7196 22.6865 18.7196C21.9994 18.7196 21.4424 19.3258 21.4424 20.0735C21.4424 20.8212 21.9994 21.4274 22.6865 21.4274Z" fill="black"/>
<path d="M34.0541 20.0735C34.0541 20.8212 33.4971 21.4274 32.81 21.4274C32.1229 21.4274 31.5659 20.8212 31.5659 20.0735C31.5659 19.3258 32.1229 18.7196 32.81 18.7196C33.4971 18.7196 34.0541 19.3258 34.0541 20.0735Z" fill="black"/>
<path fill-rule="evenodd" clip-rule="evenodd" d="M32.81 20.8302C33.1208 20.8302 33.4569 20.5399 33.4569 20.0735C33.4569 19.607 33.1208 19.3168 32.81 19.3168C32.4993 19.3168 32.1631 19.607 32.1631 20.0735C32.1631 20.5399 32.4993 20.8302 32.81 20.8302ZM32.81 21.4274C33.4971 21.4274 34.0541 20.8212 34.0541 20.0735C34.0541 19.3258 33.4971 18.7196 32.81 18.7196C32.1229 18.7196 31.5659 19.3258 31.5659 20.0735C31.5659 20.8212 32.1229 21.4274 32.81 21.4274Z" fill="black"/>
<path fill-rule="evenodd" clip-rule="evenodd" d="M26.5459 23.2022C26.7524 23.0209 27.0669 23.0414 27.2482 23.248C27.3891 23.4086 27.7226 23.5494 28.1612 23.5514C28.5933 23.5533 28.9669 23.4185 29.1588 23.2254C29.3526 23.0305 29.6677 23.0296 29.8626 23.2233C30.0576 23.4171 30.0585 23.7322 29.8647 23.9271C29.4208 24.3737 28.7482 24.5494 28.1567 24.5467C27.5717 24.5441 26.9043 24.3651 26.5001 23.9046C26.3188 23.698 26.3393 23.3835 26.5459 23.2022Z" fill="black"/>
<path fill-rule="evenodd" clip-rule="evenodd" d="M24.0689 17.2504C22.6608 17.1589 21.0072 17.7766 20.1577 18.5112C19.9498 18.691 19.6355 18.6682 19.4557 18.4603C19.2759 18.2524 19.2987 17.9381 19.5066 17.7583C20.5522 16.8541 22.4623 16.1486 24.1334 16.2571C24.4077 16.275 24.6156 16.5117 24.5978 16.786C24.58 17.0603 24.3432 17.2682 24.0689 17.2504Z" fill="black"/>
<path fill-rule="evenodd" clip-rule="evenodd" d="M31.4272 17.2504C32.8353 17.1589 34.4889 17.7766 35.3384 18.5112C35.5463 18.691 35.8606 18.6682 36.0404 18.4603C36.2202 18.2524 36.1974 17.9381 35.9895 17.7583C34.9438 16.8541 33.0338 16.1486 31.3627 16.2571C31.0884 16.275 30.8805 16.5117 30.8983 16.786C30.9161 17.0603 31.1529 17.2682 31.4272 17.2504Z" fill="black"/>
<path fill-rule="evenodd" clip-rule="evenodd" d="M29.2009 19.6203C29.4205 19.455 29.7325 19.4991 29.8978 19.7187C30.1688 20.079 30.3098 20.4656 30.2694 20.8466C30.228 21.2358 30.0055 21.5361 29.7174 21.72C29.1635 22.0737 28.3487 22.0273 27.7506 21.5309C27.5391 21.3554 27.51 21.0416 27.6855 20.8301C27.8611 20.6186 28.1748 20.5895 28.3863 20.765C28.6784 21.0074 29.0214 20.9834 29.1818 20.8811C29.2508 20.837 29.2745 20.7897 29.2796 20.7414C29.2856 20.6849 29.2733 20.5443 29.1024 20.3172C28.9372 20.0975 28.9813 19.7855 29.2009 19.6203Z" fill="black"/>
<path d="M15.4031 5.62369C15.4031 8.24855 13.1917 10.3764 10.4638 10.3764C7.73584 10.3764 5.52441 8.24855 5.52441 5.62369C5.52441 2.99884 7.73584 0.870972 10.4638 0.870972C13.1917 0.870972 15.4031 2.99884 15.4031 5.62369Z" fill="black"/>
<path fill-rule="evenodd" clip-rule="evenodd" d="M10.4638 9.92948C12.9612 9.92948 14.9562 7.98564 14.9562 5.62369C14.9562 3.26174 12.9612 1.31791 10.4638 1.31791C7.96629 1.31791 5.97135 3.26174 5.97135 5.62369C5.97135 7.98564 7.96629 9.92948 10.4638 9.92948ZM10.4638 10.3764C13.1917 10.3764 15.4031 8.24855 15.4031 5.62369C15.4031 2.99884 13.1917 0.870972 10.4638 0.870972C7.73584 0.870972 5.52441 2.99884 5.52441 5.62369C5.52441 8.24855 7.73584 10.3764 10.4638 10.3764Z" fill="black"/>
<path d="M15.4031 14.8057C15.4031 17.4306 13.1917 19.5584 10.4638 19.5584C7.73584 19.5584 5.52441 17.4306 5.52441 14.8057C5.52441 12.1808 7.73584 10.053 10.4638 10.053C13.1917 10.053 15.4031 12.1808 15.4031 14.8057Z" fill="black"/>
<path fill-rule="evenodd" clip-rule="evenodd" d="M10.4638 19.1115C12.9612 19.1115 14.9562 17.1676 14.9562 14.8057C14.9562 12.4438 12.9612 10.4999 10.4638 10.4999C7.96629 10.4999 5.97135 12.4438 5.97135 14.8057C5.97135 17.1676 7.96629 19.1115 10.4638 19.1115ZM10.4638 19.5584C13.1917 19.5584 15.4031 17.4306 15.4031 14.8057C15.4031 12.1808 13.1917 10.053 10.4638 10.053C7.73584 10.053 5.52441 12.1808 5.52441 14.8057C5.52441 17.4306 7.73584 19.5584 10.4638 19.5584Z" fill="black"/>
<path d="M11.5711 6.61905C11.5711 9.24391 9.35966 11.3718 6.63173 11.3718C3.9038 11.3718 1.69238 9.24391 1.69238 6.61905C1.69238 3.9942 3.9038 1.86633 6.63173 1.86633C9.35966 1.86633 11.5711 3.9942 11.5711 6.61905Z" fill="black"/>
<path fill-rule="evenodd" clip-rule="evenodd" d="M6.63173 10.9248C9.1292 10.9248 11.1241 8.981 11.1241 6.61905C11.1241 4.25711 9.1292 2.31327 6.63173 2.31327C4.13426 2.31327 2.13932 4.25711 2.13932 6.61905C2.13932 8.981 4.13426 10.9248 6.63173 10.9248ZM6.63173 11.3718C9.35966 11.3718 11.5711 9.24391 11.5711 6.61905C11.5711 3.9942 9.35966 1.86633 6.63173 1.86633C3.9038 1.86633 1.69238 3.9942 1.69238 6.61905C1.69238 9.24391 3.9038 11.3718 6.63173 11.3718Z" fill="black"/>
<path d="M11.5711 13.7854C11.5711 16.4103 9.35966 18.5382 6.63173 18.5382C3.9038 18.5382 1.69238 16.4103 1.69238 13.7854C1.69238 11.1606 3.9038 9.03271 6.63173 9.03271C9.35966 9.03271 11.5711 11.1606 11.5711 13.7854Z" fill="black"/>
<path fill-rule="evenodd" clip-rule="evenodd" d="M6.63173 18.0912C9.1292 18.0912 11.1241 16.1474 11.1241 13.7854C11.1241 11.4235 9.1292 9.47965 6.63173 9.47965C4.13426 9.47965 2.13932 11.4235 2.13932 13.7854C2.13932 16.1474 4.13426 18.0912 6.63173 18.0912ZM6.63173 18.5382C9.35966 18.5382 11.5711 16.4103 11.5711 13.7854C11.5711 11.1606 9.35966 9.03271 6.63173 9.03271C3.9038 9.03271 1.69238 11.1606 1.69238 13.7854C1.69238 16.4103 3.9038 18.5382 6.63173 18.5382Z" fill="black"/>
<path d="M19.26 6.61905C19.26 9.24391 17.0486 11.3718 14.3207 11.3718C11.5928 11.3718 9.38135 9.24391 9.38135 6.61905C9.38135 3.9942 11.5928 1.86633 14.3207 1.86633C17.0486 1.86633 19.26 3.9942 19.26 6.61905Z" fill="black"/>
<path fill-rule="evenodd" clip-rule="evenodd" d="M14.3207 10.9248C16.8182 10.9248 18.8131 8.981 18.8131 6.61905C18.8131 4.25711 16.8182 2.31327 14.3207 2.31327C11.8232 2.31327 9.82829 4.25711 9.82829 6.61905C9.82829 8.981 11.8232 10.9248 14.3207 10.9248ZM14.3207 11.3718C17.0486 11.3718 19.26 9.24391 19.26 6.61905C19.26 3.9942 17.0486 1.86633 14.3207 1.86633C11.5928 1.86633 9.38135 3.9942 9.38135 6.61905C9.38135 9.24391 11.5928 11.3718 14.3207 11.3718Z" fill="black"/>
<path d="M19.26 13.7854C19.26 16.4103 17.0486 18.5382 14.3207 18.5382C11.5928 18.5382 9.38135 16.4103 9.38135 13.7854C9.38135 11.1606 11.5928 9.03271 14.3207 9.03271C17.0486 9.03271 19.26 11.1606 19.26 13.7854Z" fill="black"/>
<path fill-rule="evenodd" clip-rule="evenodd" d="M14.3207 18.0912C16.8182 18.0912 18.8131 16.1474 18.8131 13.7854C18.8131 11.4235 16.8182 9.47965 14.3207 9.47965C11.8232 9.47965 9.82829 11.4235 9.82829 13.7854C9.82829 16.1474 11.8232 18.0912 14.3207 18.0912ZM14.3207 18.5382C17.0486 18.5382 19.26 16.4103 19.26 13.7854C19.26 11.1606 17.0486 9.03271 14.3207 9.03271C11.5928 9.03271 9.38135 11.1606 9.38135 13.7854C9.38135 16.4103 11.5928 18.5382 14.3207 18.5382Z" fill="black"/>
<path d="M20.1555 10.2022C20.1555 12.827 17.9441 14.9549 15.2162 14.9549C12.4883 14.9549 10.2769 12.827 10.2769 10.2022C10.2769 7.57733 12.4883 5.44946 15.2162 5.44946C17.9441 5.44946 20.1555 7.57733 20.1555 10.2022Z" fill="black"/>
<path fill-rule="evenodd" clip-rule="evenodd" d="M15.2162 14.508C17.7137 14.508 19.7086 12.5641 19.7086 10.2022C19.7086 7.84023 17.7137 5.8964 15.2162 5.8964C12.7187 5.8964 10.7238 7.84023 10.7238 10.2022C10.7238 12.5641 12.7187 14.508 15.2162 14.508ZM15.2162 14.9549C17.9441 14.9549 20.1555 12.827 20.1555 10.2022C20.1555 7.57733 17.9441 5.44946 15.2162 5.44946C12.4883 5.44946 10.2769 7.57733 10.2769 10.2022C10.2769 12.827 12.4883 14.9549 15.2162 14.9549Z" fill="black"/>
<path d="M10.6502 10.2022C10.6502 12.827 8.43876 14.9549 5.71083 14.9549C2.98291 14.9549 0.771484 12.827 0.771484 10.2022C0.771484 7.57733 2.98291 5.44946 5.71083 5.44946C8.43876 5.44946 10.6502 7.57733 10.6502 10.2022Z" fill="black"/>
<path fill-rule="evenodd" clip-rule="evenodd" d="M5.71083 14.508C8.2083 14.508 10.2032 12.5641 10.2032 10.2022C10.2032 7.84023 8.2083 5.8964 5.71083 5.8964C3.21336 5.8964 1.21842 7.84023 1.21842 10.2022C1.21842 12.5641 3.21336 14.508 5.71083 14.508ZM5.71083 14.9549C8.43876 14.9549 10.6502 12.827 10.6502 10.2022C10.6502 7.57733 8.43876 5.44946 5.71083 5.44946C2.98291 5.44946 0.771484 7.57733 0.771484 10.2022C0.771484 12.827 2.98291 14.9549 5.71083 14.9549Z" fill="black"/>
<path d="M15.5552 20.7689C15.5552 22.7224 13.9497 24.306 11.9693 24.306C9.98879 24.306 8.3833 22.7224 8.3833 20.7689C8.3833 18.8153 9.98879 17.2317 11.9693 17.2317C13.9497 17.2317 15.5552 18.8153 15.5552 20.7689Z" fill="white"/>
<path d="M15.3126 20.9141C15.2097 19.5007 14.7035 17.7126 12.7506 17.3135C12.4183 17.2456 12.2326 16.8352 12.452 16.5765L15.2785 13.2442C15.4782 13.0089 15.8575 13.0797 15.952 13.3735C16.6585 15.5708 17.3743 18.7217 15.975 21.1266C15.7876 21.4486 15.3397 21.2857 15.3126 20.9141Z" fill="black"/>
<path fill-rule="evenodd" clip-rule="evenodd" d="M15.8107 20.0794C16.1402 19.194 16.2252 18.214 16.1573 17.2126C16.0792 16.0595 15.8009 14.9132 15.4951 13.9121L13.0677 16.7739C14.1196 17.0436 14.8119 17.6786 15.2443 18.4379C15.5414 18.9596 15.713 19.5334 15.8107 20.0794ZM12.7506 17.3135C14.7035 17.7126 15.2097 19.5007 15.3126 20.9141C15.3397 21.2857 15.7876 21.4486 15.975 21.1266C17.3743 18.7217 16.6585 15.5708 15.952 13.3735C15.8575 13.0797 15.4782 13.0089 15.2785 13.2442L12.452 16.5765C12.2326 16.8352 12.4183 17.2456 12.7506 17.3135Z" fill="black"/>
<path fill-rule="evenodd" clip-rule="evenodd" d="M10.8047 19.9605C10.874 19.6945 11.1457 19.535 11.4117 19.6042C11.8429 19.7164 12.2005 19.8794 12.4902 20.1808C12.7688 20.4708 12.9418 20.846 13.0973 21.2861C13.1685 21.4878 13.103 21.7124 12.9344 21.8441C12.7659 21.9757 12.5321 21.985 12.3536 21.8671C12.1216 21.7137 11.9533 21.6487 11.8173 21.6213C11.6817 21.5939 11.5454 21.597 11.3606 21.6249C11.0889 21.6659 10.8353 21.4789 10.7943 21.2071C10.7532 20.9353 10.9403 20.6817 11.2121 20.6407C11.2567 20.634 11.3019 20.6279 11.3477 20.6228C11.292 20.6039 11.2302 20.5854 11.161 20.5674C10.895 20.4982 10.7355 20.2264 10.8047 19.9605Z" fill="black"/>
</g>
<defs>
<clipPath id="clip0_359_4732">
<rect width="45.7605" height="32" fill="white"/>
</clipPath>
</defs>
</svg>
